<svg xmlns="http://www.w3.org/2000/svg" viewBox="0 0 64 64" role="img" aria-label="Visual Diff Tool">
  <defs>
    <linearGradient id="bg" x1="8" y1="6" x2="56" y2="58" gradientUnits="userSpaceOnUse">
      <stop stop-color="#132033"/>
      <stop offset="1" stop-color="#07121F"/>
    </linearGradient>
    <filter id="soft-shadow" x="-20%" y="-20%" width="140%" height="140%">
      <feDropShadow dx="0" dy="2" stdDeviation="2" flood-color="#000814" flood-opacity=".45"/>
    </filter>
  </defs>
  <rect width="64" height="64" rx="14" fill="url(#bg)"/>
  <path d="M12 18h18v28H12z" fill="#36C5F0" opacity=".86" filter="url(#soft-shadow)"/>
  <path d="M34 18h18v28H34z" fill="#F04B8B" opacity=".86" filter="url(#soft-shadow)"/>
  <path d="M29 18h6v28h-6z" fill="#F7D154"/>
  <path d="M16 42 27 31l7 7 9-12 7 16z" fill="#F6FAFF" opacity=".92"/>
  <path d="M12 18h18v28H12zm22 0h18v28H34z" fill="none" stroke="#DCE8F8" stroke-width="3" stroke-linejoin="round"/>
  <path d="M32 11v12M32 41v12M20 32h12M32 32h12" fill="none" stroke="#F7D154" stroke-width="4" stroke-linecap="round"/>
  <circle cx="32" cy="32" r="5.5" fill="#07121F" stroke="#F7D154" stroke-width="3"/>
  <path d="M23 14h18M23 50h18" fill="none" stroke="#7AE582" stroke-width="3" stroke-linecap="round"/>
</svg>
